<svg width="10" height="9" viewBox="0 0 10 9" fill="none" xmlns="http://www.w3.org/2000/svg"><path fill-rule="evenodd" clip-rule="evenodd" d="M5 1.778a2.722 2.722 0 1 0 0 5.444 2.722 2.722 0 0 0 0-5.444ZM1.5 4.5a3.5 3.5 0 1 1 7 0 3.5 3.5 0 0 1-7 0Z" fill="#616161"/><path fill-rule="evenodd" clip-rule="evenodd" d="M1.889 4.111c.215 0 .389.174.389.389A2.722 2.722 0 0 0 5 7.222.389.389 0 1 1 5 8a3.5 3.5 0 0 1-3.5-3.5c0-.215.174-.389.389-.389Z" fill="#CCC"><animateTransform attributeName="transform" attributeType="xml" type="rotate" from="0 5 4.5" to="360 5 4.5" dur="0.4s" repeatCount="indefinite"/></path></svg>