<svg width="15" height="10" viewBox="0 0 15 10" fill="none" xmlns="http://www.w3.org/2000/svg"><path fill-rule="evenodd" clip-rule="evenodd" d="M10.489 1.027A7.38 7.38 0 0 0 7.411.34c-1.911 0-3.52.766-4.74 1.676-1.217.908-2.075 1.978-2.5 2.646L0 4.932l.17.268c.338.53.956 1.27 1.816 1.968l.842-.609a8.288 8.288 0 0 1-1.63-1.63 9.813 9.813 0 0 1 2.071-2.11C4.373 1.994 5.776 1.34 7.411 1.34c.76 0 1.47.141 2.123.375l.955-.69Zm2.421 1.615-.83.6a9.79 9.79 0 0 1 1.544 1.687c-.898 1.225-3.137 3.253-6.213 3.253a6.96 6.96 0 0 1-1.832-.245l-1.007.727c.85.318 1.8.518 2.839.518 3.779 0 6.392-2.65 7.24-3.982l.17-.268-.17-.269a10.33 10.33 0 0 0-1.741-2.02Z" fill="#72747B"/><path fill-rule="evenodd" clip-rule="evenodd" d="M8.669 2.34a2.727 2.727 0 0 0-3.951 2.854l.988-.713A1.728 1.728 0 0 1 7.68 3.055l.989-.714ZM7.598 6.479a1.729 1.729 0 0 0 1.384-1l1.154-.832.002.115a2.727 2.727 0 0 1-3.694 2.551l1.154-.834ZM13.953.207a.5.5 0 0 1-.113.698L1.567 9.77a.5.5 0 1 1-.585-.81L13.254.094a.5.5 0 0 1 .699.112Z" fill="#72747B"/></svg>